<svg width="17" height="17" viewBox="0 0 17 17" fill="none" xmlns="http://www.w3.org/2000/svg">
<path d="M2.38867 7.30273H3.58301C3.86352 7.3028 4.13265 7.414 4.33105 7.6123C4.52954 7.81079 4.6416 8.08063 4.6416 8.36133C4.64151 8.64191 4.52946 8.91097 4.33105 9.10938C4.13263 9.30778 3.8636 9.41888 3.58301 9.41895H2.25293V14.4678H14.4668V9.41895H13.1367C12.8561 9.41893 12.5871 9.30776 12.3887 9.10938C12.1903 8.91097 12.0782 8.64191 12.0781 8.36133C12.0781 8.08063 12.1902 7.81079 12.3887 7.6123C12.5871 7.41402 12.8562 7.30275 13.1367 7.30273H14.3311C14.9284 7.30274 15.5014 7.53964 15.9238 7.96191C16.3463 8.38436 16.584 8.95823 16.584 9.55566V14.332C16.584 14.9294 16.3462 15.5024 15.9238 15.9248C15.5014 16.3472 14.9285 16.585 14.3311 16.585H2.38867C1.79124 16.585 1.21835 16.3473 0.795898 15.9248C0.373465 15.5024 0.135742 14.9295 0.135742 14.332V9.55566C0.135742 8.95823 0.373448 8.38436 0.795898 7.96191C1.21831 7.53969 1.79141 7.30273 2.38867 7.30273ZM8.35938 0.135742C8.49836 0.135742 8.63631 0.163442 8.76465 0.216797C8.89301 0.270183 9.0094 0.34868 9.10742 0.447266H9.1084L12.4863 3.82422C12.5846 3.92253 12.6626 4.03957 12.7158 4.16797C12.769 4.29653 12.7969 4.43509 12.7969 4.57422C12.7968 4.71321 12.7691 4.8511 12.7158 4.97949C12.6625 5.10793 12.5847 5.22495 12.4863 5.32324C12.388 5.42152 12.271 5.49954 12.1426 5.55273C12.014 5.60593 11.8755 5.63286 11.7363 5.63281C11.5973 5.63271 11.4595 5.605 11.3311 5.55176C11.2027 5.49847 11.0856 5.42059 10.9873 5.32227L9.65039 3.98242L9.41797 3.75V10.8164C9.41796 11.097 9.3067 11.366 9.1084 11.5645C8.90991 11.7629 8.64008 11.875 8.35938 11.875C8.07881 11.8749 7.80972 11.7628 7.61133 11.5645C7.41296 11.366 7.30177 11.097 7.30176 10.8164V3.75L7.06934 3.98242L5.73047 5.32227C5.53172 5.5208 5.26237 5.63194 4.98145 5.63184C4.70046 5.63174 4.43104 5.52005 4.23242 5.32129C4.03393 5.12255 3.92178 4.85316 3.92188 4.57227C3.92202 4.29135 4.03468 4.02182 4.2334 3.82324L7.61133 0.447266C7.70935 0.348678 7.82671 0.270184 7.95508 0.216797C8.08324 0.163539 8.22059 0.135793 8.35938 0.135742Z" fill="#181725" stroke="white" stroke-width="0.271739"/>
</svg>
